<svg xmlns="http://www.w3.org/2000/svg" xmlns:xlink="http://www.w3.org/1999/xlink" width="500" zoomAndPan="magnify" viewBox="0 0 375 374.999991" height="500" preserveAspectRatio="xMidYMid meet" version="1.0"><defs><clipPath id="5c2c76bcec"><path d="M 59.175781 59.175781 L 315.824219 59.175781 L 315.824219 315.824219 L 59.175781 315.824219 Z M 59.175781 59.175781 " clip-rule="nonzero"/></clipPath><clipPath id="664d253aef"><path d="M 187.5 59.175781 C 116.628906 59.175781 59.175781 116.628906 59.175781 187.5 C 59.175781 258.371094 116.628906 315.824219 187.5 315.824219 C 258.371094 315.824219 315.824219 258.371094 315.824219 187.5 C 315.824219 116.628906 258.371094 59.175781 187.5 59.175781 Z M 187.5 59.175781 " clip-rule="nonzero"/></clipPath><clipPath id="13622f4fbc"><path d="M 159 91.125 L 215 91.125 L 215 147 L 159 147 Z M 159 91.125 " clip-rule="nonzero"/></clipPath><clipPath id="4572613c65"><path d="M 228 160 L 283.875 160 L 283.875 216 L 228 216 Z M 228 160 " clip-rule="nonzero"/></clipPath><clipPath id="2ca438d755"><path d="M 91.125 159 L 147 159 L 147 215 L 91.125 215 Z M 91.125 159 " clip-rule="nonzero"/></clipPath><clipPath id="e689fcc698"><path d="M 160 228 L 216 228 L 216 283.875 L 160 283.875 Z M 160 228 " clip-rule="nonzero"/></clipPath><clipPath id="c45fa6ebdf"><path d="M 157.511719 157.511719 L 217.488281 157.511719 L 217.488281 217.488281 L 157.511719 217.488281 Z M 157.511719 157.511719 " clip-rule="nonzero"/></clipPath><clipPath id="d53da9f4ab"><path d="M 157.511719 157.511719 L 217.476562 157.511719 L 217.476562 217.476562 L 157.511719 217.476562 Z M 157.511719 157.511719 " clip-rule="nonzero"/></clipPath><clipPath id="cfdc69b20a"><path d="M 179.160156 179.160156 L 195.839844 179.160156 L 195.839844 195.839844 L 179.160156 195.839844 Z M 179.160156 179.160156 " clip-rule="nonzero"/></clipPath></defs><g clip-path="url(#5c2c76bcec)"><g clip-path="url(#664d253aef)"><path fill="#000000" d="M 59.175781 59.175781 L 315.824219 59.175781 L 315.824219 315.824219 L 59.175781 315.824219 Z M 59.175781 59.175781 " fill-opacity="1" fill-rule="nonzero"/></g></g><path fill="#2490ea" d="M 172.492188 174.789062 L 187.09375 160.1875 L 201.699219 174.789062 C 209.765625 182.855469 209.765625 195.933594 201.699219 204 C 193.632812 212.0625 180.554688 212.0625 172.492188 204 C 164.425781 195.933594 164.425781 182.855469 172.492188 174.789062 " fill-opacity="1" fill-rule="nonzero"/><g clip-path="url(#13622f4fbc)"><path fill="#ffffff" d="M 187.09375 91.113281 L 214.972656 118.992188 L 187.09375 146.871094 L 159.214844 118.992188 Z M 187.09375 91.113281 " fill-opacity="1" fill-rule="nonzero"/></g><path fill="#ffffff" d="M 221.539062 125.5625 L 249.417969 153.441406 L 221.539062 181.316406 L 193.660156 153.441406 Z M 221.539062 125.5625 " fill-opacity="1" fill-rule="nonzero"/><g clip-path="url(#4572613c65)"><path fill="#ffffff" d="M 255.984375 160.007812 L 283.863281 187.882812 L 255.984375 215.761719 L 228.105469 187.882812 Z M 255.984375 160.007812 " fill-opacity="1" fill-rule="nonzero"/></g><path fill="#ffffff" d="M 153.050781 125.160156 L 180.929688 153.035156 L 153.050781 180.914062 L 125.171875 153.035156 Z M 153.050781 125.160156 " fill-opacity="1" fill-rule="nonzero"/><path fill="#ffffff" d="M 221.941406 194.050781 L 249.820312 221.929688 L 221.941406 249.804688 L 194.0625 221.929688 Z M 221.941406 194.050781 " fill-opacity="1" fill-rule="nonzero"/><g clip-path="url(#2ca438d755)"><path fill="#ffffff" d="M 119.007812 159.203125 L 146.882812 187.082031 L 119.007812 214.957031 L 91.125 187.082031 Z M 119.007812 159.203125 " fill-opacity="1" fill-rule="nonzero"/></g><path fill="#ffffff" d="M 153.453125 193.648438 L 181.328125 221.527344 L 153.453125 249.402344 L 125.570312 221.527344 Z M 153.453125 193.648438 " fill-opacity="1" fill-rule="nonzero"/><g clip-path="url(#e689fcc698)"><path fill="#ffffff" d="M 187.898438 228.09375 L 215.777344 255.972656 L 187.898438 283.851562 L 160.019531 255.972656 Z M 187.898438 228.09375 " fill-opacity="1" fill-rule="nonzero"/></g><g clip-path="url(#c45fa6ebdf)"><path fill="#000000" d="M 157.511719 157.511719 L 217.488281 157.511719 L 217.488281 217.488281 L 157.511719 217.488281 Z M 157.511719 157.511719 " fill-opacity="1" fill-rule="nonzero"/></g><g clip-path="url(#d53da9f4ab)"><path stroke-linecap="butt" transform="matrix(0.75, 0, 0, 0.75, 157.513588, 157.513583)" fill="none" stroke-linejoin="miter" d="M -0.00249201 -0.00248601 L 79.950638 -0.00248601 L 79.950638 79.950644 L -0.00249201 79.950644 Z M -0.00249201 -0.00248601 " stroke="#ffffff" stroke-width="22" stroke-opacity="1" stroke-miterlimit="4"/></g><g clip-path="url(#cfdc69b20a)"><path fill="#ffffff" d="M 179.160156 179.160156 L 195.839844 179.160156 L 195.839844 195.839844 L 179.160156 195.839844 Z M 179.160156 179.160156 " fill-opacity="1" fill-rule="nonzero"/></g></svg>